<mxfile host="app.diagrams.net" modified="2023-03-18T15:51:59.766Z" agent="5.0 (Macintosh; Intel Mac OS X 10_15_7) AppleWebKit/605.1.15 (KHTML, like Gecko) Version/16.1 Safari/605.1.15" etag="j9X9QikJEv9iBP5O_CVS" version="21.0.7" type="github">
  <diagram name="Pagina-1" id="2gnQn5dsZddcRE8RK6tl">
    <mxGraphModel dx="1892" dy="675" grid="1" gridSize="10" guides="0" tooltips="1" connect="1" arrows="1" fold="1" page="1" pageScale="1" pageWidth="827" pageHeight="1169" math="0" shadow="0">
      <root>
        <mxCell id="0" />
        <mxCell id="1" parent="0" />
        <mxCell id="HYb9EO3i7QYgC3tbqvvC-1" value="" style="rounded=0;whiteSpace=wrap;html=1;" parent="1" vertex="1">
          <mxGeometry x="-8.45" y="40" width="560" height="480" as="geometry" />
        </mxCell>
        <mxCell id="HYb9EO3i7QYgC3tbqvvC-2" value="&lt;b&gt;&lt;font style=&quot;font-size: 16px;&quot;&gt;OUTSOURCING HUB&lt;/font&gt;&lt;/b&gt;" style="text;html=1;align=center;verticalAlign=middle;resizable=0;points=[];autosize=1;strokeColor=none;fillColor=none;" parent="1" vertex="1">
          <mxGeometry x="204" y="50" width="180" height="30" as="geometry" />
        </mxCell>
        <mxCell id="HYb9EO3i7QYgC3tbqvvC-3" value="Developer" style="shape=umlActor;verticalLabelPosition=bottom;verticalAlign=top;html=1;outlineConnect=0;fontSize=16;" parent="1" vertex="1">
          <mxGeometry x="-140" y="270" width="30" height="60" as="geometry" />
        </mxCell>
        <mxCell id="pXMp4Kn1TM848HMNzgxB-13" value="&lt;span style=&quot;caret-color: rgb(0, 0, 0); font-family: Helvetica; font-size: x-small; font-style: normal; font-variant-caps: normal; font-weight: 400; letter-spacing: normal; text-align: center; text-indent: 0px; text-transform: none; word-spacing: 0px; -webkit-text-stroke-width: 0px; text-decoration: none; float: none; display: inline !important;&quot;&gt;&lt;font color=&quot;#333333&quot;&gt;SEARCH JOB OFFER&lt;/font&gt;&lt;/span&gt;" style="ellipse;whiteSpace=wrap;html=1;fillColor=#f8cecc;strokeColor=#b85450;" parent="1" vertex="1">
          <mxGeometry x="85" y="205.5" width="120" height="40" as="geometry" />
        </mxCell>
        <mxCell id="pXMp4Kn1TM848HMNzgxB-14" style="edgeStyle=none;rounded=0;orthogonalLoop=1;jettySize=auto;html=1;strokeColor=default;strokeWidth=1;fontSize=10;startArrow=none;startFill=0;endArrow=none;endFill=0;exitX=0;exitY=0.5;exitDx=0;exitDy=0;" parent="1" source="pXMp4Kn1TM848HMNzgxB-13" edge="1">
          <mxGeometry relative="1" as="geometry">
            <mxPoint x="-100" y="310" as="targetPoint" />
            <mxPoint x="73.18019484660522" y="575.8578643762689" as="sourcePoint" />
          </mxGeometry>
        </mxCell>
        <mxCell id="pXMp4Kn1TM848HMNzgxB-25" value="&lt;font style=&quot;font-size: 9px;&quot;&gt;VIEW COMPANY PROFILE&lt;br style=&quot;font-size: 9px;&quot;&gt;&lt;/font&gt;" style="ellipse;whiteSpace=wrap;html=1;fillColor=#dae8fc;strokeColor=#6c8ebf;fontSize=9;strokeWidth=1;fillStyle=hatch;" parent="1" vertex="1">
          <mxGeometry x="340" y="120" width="80" height="40" as="geometry" />
        </mxCell>
        <mxCell id="pXMp4Kn1TM848HMNzgxB-27" value="&amp;lt;&amp;lt;extends&amp;gt;&amp;gt;" style="endArrow=block;endFill=0;html=1;rounded=0;dashed=1;exitX=0;exitY=0.5;exitDx=0;exitDy=0;entryX=1;entryY=0;entryDx=0;entryDy=0;" parent="1" source="pXMp4Kn1TM848HMNzgxB-25" target="pXMp4Kn1TM848HMNzgxB-13" edge="1">
          <mxGeometry x="-0.014" width="160" relative="1" as="geometry">
            <mxPoint x="135.00359312880727" y="195.50213562373062" as="sourcePoint" />
            <mxPoint x="137.43" y="241.36" as="targetPoint" />
            <Array as="points" />
            <mxPoint as="offset" />
          </mxGeometry>
        </mxCell>
        <mxCell id="RlEHUobtLTkPr5iFvAjW-1" value="&lt;font style=&quot;font-size: 9px;&quot;&gt;FAVORITE&lt;br style=&quot;font-size: 9px;&quot;&gt;&lt;/font&gt;" style="ellipse;whiteSpace=wrap;html=1;fillColor=#dae8fc;strokeColor=#6c8ebf;fontSize=9;strokeWidth=1;fillStyle=hatch;" parent="1" vertex="1">
          <mxGeometry x="390" y="190" width="80" height="40" as="geometry" />
        </mxCell>
        <mxCell id="RlEHUobtLTkPr5iFvAjW-2" value="&amp;lt;&amp;lt;extends&amp;gt;&amp;gt;" style="endArrow=block;endFill=0;html=1;rounded=0;dashed=1;exitX=0;exitY=0.5;exitDx=0;exitDy=0;entryX=0.958;entryY=0.686;entryDx=0;entryDy=0;entryPerimeter=0;" parent="1" source="RlEHUobtLTkPr5iFvAjW-1" target="pXMp4Kn1TM848HMNzgxB-13" edge="1">
          <mxGeometry x="-0.014" width="160" relative="1" as="geometry">
            <mxPoint x="415.00000000000637" y="215.5" as="sourcePoint" />
            <mxPoint x="214.99999999999795" y="235.5" as="targetPoint" />
            <Array as="points" />
            <mxPoint as="offset" />
          </mxGeometry>
        </mxCell>
        <mxCell id="_rWtRJtxDRpgzzJgkUGj-2" value="&amp;lt;&amp;lt;extends&amp;gt;&amp;gt;" style="endArrow=block;endFill=0;html=1;rounded=0;dashed=1;entryX=0.5;entryY=1;entryDx=0;entryDy=0;exitX=0.5;exitY=0;exitDx=0;exitDy=0;" parent="1" source="_rWtRJtxDRpgzzJgkUGj-3" target="pXMp4Kn1TM848HMNzgxB-13" edge="1">
          <mxGeometry x="-0.014" width="160" relative="1" as="geometry">
            <mxPoint x="215" y="305.5" as="sourcePoint" />
            <mxPoint x="82" y="375.5" as="targetPoint" />
            <Array as="points" />
            <mxPoint as="offset" />
          </mxGeometry>
        </mxCell>
        <mxCell id="_rWtRJtxDRpgzzJgkUGj-3" value="&lt;font style=&quot;font-size: 9px;&quot;&gt;VIEW JOB OFFER&lt;br style=&quot;font-size: 9px;&quot;&gt;&lt;/font&gt;" style="ellipse;whiteSpace=wrap;html=1;fillColor=#dae8fc;strokeColor=#6c8ebf;fontSize=9;strokeWidth=1;fillStyle=hatch;" parent="1" vertex="1">
          <mxGeometry x="310" y="270" width="80" height="40" as="geometry" />
        </mxCell>
        <mxCell id="z_wZfcyNCw6IH_FME8vs-10" value="&lt;span style=&quot;caret-color: rgb(0, 0, 0); font-family: Helvetica; font-size: x-small; font-style: normal; font-variant-caps: normal; font-weight: 400; letter-spacing: normal; text-align: center; text-indent: 0px; text-transform: none; word-spacing: 0px; -webkit-text-stroke-width: 0px; text-decoration: none; float: none; display: inline !important;&quot;&gt;&lt;font color=&quot;#333333&quot;&gt;&amp;nbsp;JOB OFFER&lt;/font&gt;&lt;/span&gt;" style="ellipse;whiteSpace=wrap;html=1;fillColor=#f8cecc;strokeColor=#b85450;" parent="1" vertex="1">
          <mxGeometry x="50" y="315.5" width="120" height="40" as="geometry" />
        </mxCell>
        <mxCell id="z_wZfcyNCw6IH_FME8vs-11" style="edgeStyle=none;rounded=0;orthogonalLoop=1;jettySize=auto;html=1;strokeColor=default;strokeWidth=1;fontSize=10;startArrow=none;startFill=0;endArrow=none;endFill=0;exitX=0;exitY=0.5;exitDx=0;exitDy=0;" parent="1" source="z_wZfcyNCw6IH_FME8vs-10" edge="1">
          <mxGeometry relative="1" as="geometry">
            <mxPoint x="-100" y="310" as="targetPoint" />
            <mxPoint x="70" y="320" as="sourcePoint" />
          </mxGeometry>
        </mxCell>
        <mxCell id="z_wZfcyNCw6IH_FME8vs-12" value="&amp;lt;&amp;lt;extends&amp;gt;&amp;gt;" style="endArrow=block;endFill=0;html=1;rounded=0;dashed=1;entryX=0.5;entryY=1;entryDx=0;entryDy=0;exitX=0;exitY=0.5;exitDx=0;exitDy=0;" parent="1" source="z_wZfcyNCw6IH_FME8vs-13" target="z_wZfcyNCw6IH_FME8vs-10" edge="1">
          <mxGeometry x="-0.014" width="160" relative="1" as="geometry">
            <mxPoint x="215" y="435.5" as="sourcePoint" />
            <mxPoint x="95" y="365.5" as="targetPoint" />
            <Array as="points" />
            <mxPoint as="offset" />
          </mxGeometry>
        </mxCell>
        <mxCell id="z_wZfcyNCw6IH_FME8vs-13" value="&lt;font style=&quot;font-size: 9px;&quot;&gt;ACCEPT&lt;br style=&quot;font-size: 9px;&quot;&gt;&lt;/font&gt;" style="ellipse;whiteSpace=wrap;html=1;fillColor=#dae8fc;strokeColor=#6c8ebf;fontSize=9;strokeWidth=1;fillStyle=hatch;" parent="1" vertex="1">
          <mxGeometry x="180" y="410" width="80" height="40" as="geometry" />
        </mxCell>
        <mxCell id="z_wZfcyNCw6IH_FME8vs-14" value="&lt;font style=&quot;font-size: 9px;&quot;&gt;DENY&lt;br style=&quot;font-size: 9px;&quot;&gt;&lt;/font&gt;" style="ellipse;whiteSpace=wrap;html=1;fillColor=#dae8fc;strokeColor=#6c8ebf;fontSize=9;strokeWidth=1;fillStyle=hatch;" parent="1" vertex="1">
          <mxGeometry x="270" y="360" width="80" height="40" as="geometry" />
        </mxCell>
        <mxCell id="z_wZfcyNCw6IH_FME8vs-15" value="&amp;lt;&amp;lt;extends&amp;gt;&amp;gt;" style="endArrow=block;endFill=0;html=1;rounded=0;dashed=1;entryX=1;entryY=0.5;entryDx=0;entryDy=0;exitX=0;exitY=0;exitDx=0;exitDy=0;" parent="1" source="z_wZfcyNCw6IH_FME8vs-14" target="z_wZfcyNCw6IH_FME8vs-10" edge="1">
          <mxGeometry x="-0.014" width="160" relative="1" as="geometry">
            <mxPoint x="250" y="425.5" as="sourcePoint" />
            <mxPoint x="205" y="355.5" as="targetPoint" />
            <Array as="points" />
            <mxPoint as="offset" />
          </mxGeometry>
        </mxCell>
      </root>
    </mxGraphModel>
  </diagram>
</mxfile>
